<svg width="22" height="22" viewBox="0 0 22 22" fill="none" xmlns="http://www.w3.org/2000/svg">
<g clip-path="url(#clip0_267_30745)">
<path d="M12.8062 4L11.8152 2.00376C11.4817 1.33208 10.5184 1.33208 10.185 2.00376L9.68945 3.00188" stroke="currentColor" stroke-width="1.5" stroke-linecap="round" stroke-linejoin="round"/>
<path d="M14.0117 6.42676L14.4133 7.23575L15.8656 7.4468" stroke="currentColor" stroke-width="1.5" stroke-linecap="round" stroke-linejoin="round"/>
<path d="M18.7695 7.86914L20.2217 8.08019C20.967 8.1885 21.2641 9.0994 20.7245 9.62194L19.6739 10.6394" stroke="currentColor" stroke-width="1.5" stroke-linecap="round" stroke-linejoin="round"/>
<path d="M17.5721 12.6738L16.5215 13.6913L16.7694 15.1287" stroke="currentColor" stroke-width="1.5" stroke-linecap="round" stroke-linejoin="round"/>
<path d="M17.2642 18.0039L17.5122 19.4413C17.6395 20.1797 16.86 20.7427 16.1932 20.394L14.8945 19.715" stroke="currentColor" stroke-width="1.5" stroke-linecap="round" stroke-linejoin="round"/>
<path d="M9.42798 18.4998L11.0001 17.6777L12.2987 18.3568" stroke="currentColor" stroke-width="1.5" stroke-linecap="round" stroke-linejoin="round"/>
<path d="M4.67145 18.3691L4.48645 19.4416C4.35908 20.18 5.13859 20.743 5.80546 20.3943L6.65273 19.9513" stroke="currentColor" stroke-width="1.5" stroke-linecap="round" stroke-linejoin="round"/>
<path d="M5.25266 14.9997L5.47832 13.6915L4.78345 13.0186" stroke="currentColor" stroke-width="1.5" stroke-linecap="round" stroke-linejoin="round"/>
<path d="M2.69875 11.0002L1.27575 9.62212C0.736173 9.09957 1.03322 8.18868 1.77852 8.08037L2.88926 7.91895" stroke="currentColor" stroke-width="1.5" stroke-linecap="round" stroke-linejoin="round"/>
<path d="M6 7.46684L7.58737 7.23615L8.39062 5.61816" stroke="currentColor" stroke-width="1.5" stroke-linecap="round" stroke-linejoin="round"/>
</g>
<defs>
<clipPath id="clip0_267_30745">
<rect width="22" height="22" fill="white"/>
</clipPath>
</defs>
</svg>
