<svg width="18" height="20" viewBox="0 0 18 20" fill="none" xmlns="http://www.w3.org/2000/svg">
<g clip-path="url(#clip0_267_30430)">
<path d="M3.4 6C3.73137 6 4 5.73137 4 5.4V1.6C4 1.26863 4.26863 1 4.6 1H13.4C13.7314 1 14 1.26863 14 1.6V5.4C14 5.73137 14.2686 6 14.6 6H16.4C16.7314 6 17 6.26863 17 6.6V18.4C17 18.7314 16.7314 19 16.4 19H1.6C1.26863 19 1 18.7314 1 18.4V6.6C1 6.26863 1.26863 6 1.6 6H3.4Z" stroke="currentColor" stroke-width="1.5"/>
<path d="M6.99219 6H8.99219M10.9922 6H8.99219M8.99219 6V4M8.99219 6V8" stroke="currentColor" stroke-width="1.5" stroke-linecap="round" stroke-linejoin="round"/>
<path d="M13 15.01L13.01 14.9989" stroke="currentColor" stroke-width="1.5" stroke-linecap="round" stroke-linejoin="round"/>
<path d="M13 11.01L13.01 10.9989" stroke="currentColor" stroke-width="1.5" stroke-linecap="round" stroke-linejoin="round"/>
<path d="M9 11.01L9.01 10.9989" stroke="currentColor" stroke-width="1.5" stroke-linecap="round" stroke-linejoin="round"/>
<path d="M5 11.01L5.01 10.9989" stroke="currentColor" stroke-width="1.5" stroke-linecap="round" stroke-linejoin="round"/>
<path d="M5 15.01L5.01 14.9989" stroke="currentColor" stroke-width="1.5" stroke-linecap="round" stroke-linejoin="round"/>
<path d="M9 15.01L9.01 14.9989" stroke="currentColor" stroke-width="1.5" stroke-linecap="round" stroke-linejoin="round"/>
</g>
<defs>
<clipPath id="clip0_267_30430">
<rect width="18" height="20" fill="white"/>
</clipPath>
</defs>
</svg>
