<svg width="20" height="20" viewBox="0 0 20 20" fill="none" xmlns="http://www.w3.org/2000/svg">
<g clip-path="url(#clip0_267_29180)">
<path d="M3 14L3 12" stroke="currentColor" stroke-width="1.5" stroke-linecap="round" stroke-linejoin="round"/>
<path d="M10 19V17" stroke="currentColor" stroke-width="1.5" stroke-linecap="round" stroke-linejoin="round"/>
<path d="M17 11V9" stroke="currentColor" stroke-width="1.5" stroke-linecap="round" stroke-linejoin="round"/>
<path d="M3 6L3 4" stroke="currentColor" stroke-width="1.5" stroke-linecap="round" stroke-linejoin="round"/>
<path d="M10 11V9" stroke="currentColor" stroke-width="1.5" stroke-linecap="round" stroke-linejoin="round"/>
<path d="M17 3V1" stroke="currentColor" stroke-width="1.5" stroke-linecap="round" stroke-linejoin="round"/>
<path d="M5 6.6V11.4C5 11.7314 4.73137 12 4.4 12H1.6C1.26863 12 1 11.7314 1 11.4V6.6C1 6.26863 1.26863 6 1.6 6H4.4C4.73137 6 5 6.26863 5 6.6Z" stroke="currentColor" stroke-width="1.5" stroke-linecap="round" stroke-linejoin="round"/>
<path d="M12 11.6V16.4C12 16.7314 11.7314 17 11.4 17H8.6C8.26863 17 8 16.7314 8 16.4V11.6C8 11.2686 8.26863 11 8.6 11H11.4C11.7314 11 12 11.2686 12 11.6Z" stroke="currentColor" stroke-width="1.5" stroke-linecap="round" stroke-linejoin="round"/>
<path d="M19 3.6V8.4C19 8.73137 18.7314 9 18.4 9H15.6C15.2686 9 15 8.73137 15 8.4V3.6C15 3.26863 15.2686 3 15.6 3H18.4C18.7314 3 19 3.26863 19 3.6Z" stroke="currentColor" stroke-width="1.5" stroke-linecap="round" stroke-linejoin="round"/>
</g>
<defs>
<clipPath id="clip0_267_29180">
<rect width="20" height="20" fill="white"/>
</clipPath>
</defs>
</svg>
